PathFileType	4	(X/Y/Z)	C:\Users\Basilio\Documents\Thesis Gigler\squatting_fais\c3dfiles\038\SLS_back_pre4\markers_experimental.trc
DataRate	CameraRate	NumFrames	NumMarkers	Units	OrigDataRate	OrigDataStartFrame	OrigNumFrames
200.000000	200.000000	4	63	mm	200.000000	1486	1982
Frame#	Time	FHD			LBHD			RBHD			C7			T10			CLAV			LSHO			LUUPA			LMUPA			LDUPA			LLEP			LMEP			LRAD			LUL			LRFIN			RSHO			RUPA1			RMUPA			RDUPA			RLEP			RMEP			RRAD			RUL			RUFIN			LASI			RASI			USACR			LSACR			RSACR			LTHI1			LTHI2			LTHI3			LTHI4			LLFC			LMFC			LTIB1			LTIB2			LTIB3			LTIB4			LLMAL			LMMAL			LHEE			LMT1			LMT2			LMT5			RTHI			RTHI2			RTHI3			RTHI4			RLFC			RMFC			RTIB1			RTIB2			RTIB3			RTIB4			RLMAL			RMMAL			RHEE			RMT1			RMT2			RMT5			*61			*62			
		X1	Y1	Z1	X2	Y2	Z2	X3	Y3	Z3	X4	Y4	Z4	X5	Y5	Z5	X6	Y6	Z6	X7	Y7	Z7	X8	Y8	Z8	X9	Y9	Z9	X10	Y10	Z10	X11	Y11	Z11	X12	Y12	Z12	X13	Y13	Z13	X14	Y14	Z14	X15	Y15	Z15	X16	Y16	Z16	X17	Y17	Z17	X18	Y18	Z18	X19	Y19	Z19	X20	Y20	Z20	X21	Y21	Z21	X22	Y22	Z22	X23	Y23	Z23	X24	Y24	Z24	X25	Y25	Z25	X26	Y26	Z26	X27	Y27	Z27	X28	Y28	Z28	X29	Y29	Z29	X30	Y30	Z30	X31	Y31	Z31	X32	Y32	Z32	X33	Y33	Z33	X34	Y34	Z34	X35	Y35	Z35	X36	Y36	Z36	X37	Y37	Z37	X38	Y38	Z38	X39	Y39	Z39	X40	Y40	Z40	X41	Y41	Z41	X42	Y42	Z42	X43	Y43	Z43	X44	Y44	Z44	X45	Y45	Z45	X46	Y46	Z46	X47	Y47	Z47	X48	Y48	Z48	X49	Y49	Z49	X50	Y50	Z50	X51	Y51	Z51	X52	Y52	Z52	X53	Y53	Z53	X54	Y54	Z54	X55	Y55	Z55	X56	Y56	Z56	X57	Y57	Z57	X58	Y58	Z58	X59	Y59	Z59	X60	Y60	Z60	X61	Y61	Z61	X62	Y62	Z62	X63	Y63	Z63	

1487	7.43	-188.6959381103516	1764.787719726563	-1045.130126953125	-345.5690917968751	1722.819580078125	-1109.260009765625	-340.9255676269532	1707.222045898438	-964.8016357421877	-399.3628234863282	1539.415771484375	-1044.186279296875	-391.4233398437501	1258.827392578125	-1029.42041015625	-255.2997741699219	1524.1826171875	-1050.976196289063	-312.3785095214844	1563.939331054688	-1192.809204101563	-146.2140655517578	1508.285034179688	-1323.9375	-118.1235961914063	1540.149047851563	-1294.65576171875	-76.98534393310548	1515.095703125	-1330.275146484375	-14.82790565490723	1516.61181640625	-1329.772338867188	-6.355011940002443	1440.332641601563	-1310.574462890625	268.1328430175782	1503.80322265625	-1218.095825195313	279.8006286621094	1517.756713867188	-1288.494750976563	340.2334899902344	1534.526733398438	-1196.706909179688	-304.8582763671876	1549.914916992188	-909.315612792969	-143.9802398681641	1529.836059570313	-800.6467285156252	-110.6000061035157	1535.841064453125	-835.050231933594	-75.31201171875001	1524.691650390625	-786.759460449219	-2.336240768432618	1521.296630859375	-780.0981445312502	2.470377445220948	1442.424682617188	-793.7351074218752	275.2189025878907	1511.027221679688	-851.8935546875002	284.9107666015626	1529.4677734375	-784.400817871094	355.0560913085938	1546.138305664063	-857.8439941406252	-225.3708801269532	1056.6533203125	-1116.633666992188	-246.9372863769532	1092.403442382813	-871.112487792969	-402.5831298828126	1125.288818359375	-1011.173645019531	-414.912078857422	1094.139526367188	-1036.344116210938	-417.5227050781251	1099.09814453125	-979.7587890625002	-255.5620880126954	735.9318847656251	-1146.955444335938	-224.4306945800782	657.4768066406251	-1132.659301757813	-179.8238372802735	666.2492065429689	-1108.973754882813	-252.9460601806641	609.7697753906251	-1112.256225585938	-248.3323059082032	549.4357910156251	-1101.101928710938	-248.261703491211	549.0882568359376	-981.7254028320315	-240.6761779785157	363.4670410156251	-1016.077819824219	-284.9894714355469	322.9490356445313	-1080.780029296875	-250.1896209716797	315.2850952148438	-1049.02392578125	-277.4567260742188	241.2226715087891	-1017.257934570313	-377.5297241210938	121.0677261352539	-1034.375	-341.9216918945313	133.5672760009766	-962.782653808594	-432.5206604003907	101.6760406494141	-980.5970458984377	-233.4420318603516	44.57529067993165	-974.4949340820315	-225.2426300048829	45.65166473388673	-1024.63671875	-269.9644775390626	36.65283584594727	-1070.745727539063	-241.3378295898438	827.4763183593752	-791.4689941406252	-193.1450958251954	781.4682617187502	-781.311218261719	-160.5546417236328	788.6868896484377	-786.2821044921877	-203.6257781982422	695.4883422851564	-789.7373046875002	-181.4916229248047	601.8757324218751	-802.724304199219	-176.1119232177735	592.1450805664064	-918.247741699219	-303.9704895019532	492.9660644531251	-844.276062011719	-409.394989013672	540.6005859375001	-827.498718261719	-389.3765258789064	496.9750061035157	-831.751647949219	-428.3701477050782	470.2341918945314	-867.6121826171877	-561.3033447265626	494.9624023437501	-861.8352050781252	-536.3103637695314	462.882293701172	-935.529235839844	-590.3319702148439	544.6087646484376	-937.1950683593752	-601.9971923828126	329.0123291015626	-922.5245361328127	-611.5272827148439	330.1611633300782	-875.6712036132815	-644.0308227539064	374.3990173339844	-841.7510375976565	nan	nan	nan	nan	nan	nan	
1488	7.435	-188.9283752441407	1764.910888671875	-1045.304809570313	-345.6471557617188	1722.819702148438	-1109.299072265625	-341.0566101074219	1707.332153320313	-964.8330078125002	-399.4513549804689	1539.411743164063	-1044.150268554688	-391.292205810547	1258.796752929688	-1029.372192382813	-255.3695526123047	1524.166259765625	-1050.941284179688	-312.4322204589844	1563.900268554688	-1192.816284179688	-146.2015075683594	1508.233642578125	-1323.902099609375	-118.1469421386719	1540.214233398438	-1294.646484375	-77.0235061645508	1515.067993164063	-1330.268798828125	-14.77950763702393	1516.651123046875	-1329.783447265625	-6.35763454437256	1440.356323242188	-1310.545654296875	268.1847229003907	1503.6923828125	-1218.09814453125	279.8085327148438	1517.821899414063	-1288.5361328125	340.5331115722657	1534.33544921875	-1196.670288085938	-304.9430236816407	1549.939086914063	-909.3068847656252	-143.8210601806641	1529.95458984375	-800.5225830078127	-110.414665222168	1535.563720703125	-834.9097900390627	-75.39770507812501	1524.765380859375	-786.726013183594	-2.519142866134644	1521.464965820313	-779.9903564453127	2.410065889358521	1442.555053710938	-793.661804199219	275.2642822265626	1511.435180664063	-851.7346801757815	284.7750549316407	1529.718872070313	-784.2297363281252	354.9852905273438	1545.769897460938	-857.5610351562502	-225.1427154541016	1056.676513671875	-1116.605224609375	-246.8192901611329	1092.462158203125	-871.0230712890627	-402.3668212890626	1125.304931640625	-1011.123901367188	-414.7197570800782	1094.13818359375	-1036.33740234375	-417.3566284179689	1099.114868164063	-979.7312011718752	-255.5889282226563	735.9349365234376	-1147.002319335938	-224.4360961914063	657.4799194335939	-1132.783935546875	-179.797607421875	666.2217407226564	-1109.083984375	-252.9470825195313	609.7672729492189	-1112.359619140625	-248.3335113525391	549.4231567382814	-1101.187622070313	-247.9351501464844	549.0629882812501	-981.7810058593752	-240.6211700439454	363.4253234863282	-1016.257019042969	-285.0245056152344	322.9279174804688	-1080.899169921875	-250.1793060302735	315.2891845703126	-1049.18603515625	-277.4531555175782	241.1705322265626	-1017.373352050781	-378.8071289062501	120.7615509033203	-1034.8662109375	-341.8464660644532	133.5111083984375	-962.8789062500002	-432.4577026367189	101.6527938842774	-980.6439208984377	-233.0384216308594	43.76247787475587	-974.036560058594	-224.285629272461	45.87841033935548	-1024.234130859375	-269.9866333007813	36.58706665039063	-1070.764404296875	-241.131088256836	827.5539550781252	-791.463073730469	-193.0412750244141	781.5615844726565	-781.228210449219	-160.410629272461	788.7661132812502	-786.1350097656252	-203.4538116455079	695.5504150390626	-789.664978027344	-181.0840454101563	602.2659301757814	-802.5371093750002	-175.8818664550782	592.1738891601564	-918.1624145507815	-303.7114257812501	492.9824829101564	-844.2519531250002	-409.1345520019532	540.5399780273439	-827.5982666015627	-389.1398010253907	496.8934326171876	-831.8756103515627	-428.1038818359376	470.235321044922	-867.6309204101565	-561.1127319335939	494.8170166015626	-861.9331665039065	-535.9998779296876	462.8123168945314	-935.6887817382815	-590.1029052734376	544.4956054687501	-937.3278808593752	-601.4848632812501	329.0867614746094	-923.071960449219	-611.1966552734376	330.5007019042969	-875.916687011719	-643.8175048828126	374.2348937988282	-842.0361938476565	nan	nan	nan	nan	nan	nan	
1489	7.44	-188.9152526855469	1764.996704101563	-1045.30712890625	-345.7875976562501	1722.768188476563	-1109.351684570313	-341.2190246582032	1707.3544921875	-964.8383789062502	-399.4543457031251	1539.387817382813	-1044.184326171875	-391.1836242675782	1258.842895507813	-1029.431762695313	-255.3816070556641	1524.209716796875	-1050.9326171875	-312.4284973144532	1563.906372070313	-1192.79248046875	-146.2508544921875	1508.259887695313	-1323.889892578125	-118.1979598999024	1540.141967773438	-1294.642578125	-76.97389221191408	1515.06884765625	-1330.266967773438	-14.86608791351319	1516.671508789063	-1329.737060546875	-6.349910259246828	1440.418212890625	-1310.499267578125	268.0783081054688	1503.841796875	-1218.192260742188	279.8494262695313	1517.927734375	-1288.559814453125	340.4617309570313	1534.432861328125	-1196.728393554688	-304.9961242675782	1549.94873046875	-909.260681152344	-144.0255737304688	1529.9423828125	-800.4351806640627	-110.4896545410157	1535.648193359375	-834.8413696289065	-75.43675231933595	1524.881713867188	-786.6218261718752	-2.695851087570191	1521.581420898438	-779.8350219726565	2.374908924102784	1442.695434570313	-793.4890136718752	275.1050720214844	1511.803344726563	-851.397155761719	284.6564025878907	1530.044799804688	-783.9759521484377	354.9190063476563	1545.931274414063	-857.357604980469	-224.9616241455079	1056.71728515625	-1116.529418945313	-246.7118377685547	1092.513671875	-870.971374511719	-402.185516357422	1125.256469726563	-1011.064025878906	-414.6776428222657	1094.176513671875	-1036.321655273438	-416.9956054687501	1099.047485351563	-979.6649169921877	-255.5952911376954	735.9126586914064	-1147.033325195313	-224.492172241211	657.4975585937501	-1132.977172851563	-179.7290649414063	666.1646728515626	-1109.30517578125	-252.9646148681641	609.7481079101564	-1112.500244140625	-248.0680694580079	549.6625366210939	-1101.282592773438	-247.5228118896485	548.9195556640626	-981.7986450195315	-240.6243438720704	363.3883972167969	-1016.419982910156	-284.9826049804688	322.8815917968751	-1080.983032226563	-250.1775054931641	315.2597961425782	-1049.289428710938	-277.4954528808594	241.2119293212891	-1017.497253417969	-378.8406066894532	120.7065963745117	-1034.894775390625	-341.8530883789063	133.5578002929688	-962.8924560546877	-432.4713745117189	101.679672241211	-980.6954345703127	-233.1048431396485	43.80693817138673	-974.0219726562502	-224.2952423095704	45.85177612304688	-1024.251586914063	-270.0451049804688	36.64371490478516	-1070.846801757813	-240.8662872314454	827.6338500976565	-791.454284667969	-192.8505554199219	781.6616210937502	-781.2163085937502	-160.265365600586	788.8259277343752	-786.0792236328127	-203.2267150878907	695.6173095703126	-789.640808105469	-181.0635528564453	601.9349975585939	-802.603698730469	-175.6580657958985	592.2701416015626	-918.0855712890627	-303.4923706054688	492.8944702148439	-844.2412719726565	-408.8421630859376	540.4985961914064	-827.6234130859377	-388.9299926757814	496.8413085937501	-831.897399902344	-427.8502502441407	470.2278747558595	-867.5769042968752	-560.9058837890626	494.6451721191407	-862.026306152344	-535.6968383789064	462.7897338867189	-935.8215332031252	-589.7333374023439	544.4013061523439	-937.400329589844	-601.1132202148439	328.9446716308594	-923.4636840820315	-610.8626708984376	330.3309631347657	-876.3892822265627	-643.4426879882814	374.0129089355469	-842.3474731445315	nan	nan	nan	nan	nan	nan	
1490	7.445	-188.9539337158203	1765.11279296875	-1045.357666015625	-345.9073181152344	1722.830688476563	-1109.391723632813	-341.4040832519532	1707.299194335938	-964.8604736328127	-399.4848022460939	1539.35546875	-1044.181274414063	-391.1182250976564	1258.821899414063	-1029.425537109375	-255.3828430175782	1524.231689453125	-1050.922485351563	-312.4493103027344	1563.884887695313	-1192.788940429688	-146.1730499267578	1508.281494140625	-1323.899780273438	-118.2111206054688	1540.189086914063	-1294.625244140625	-77.00609588623048	1515.085815429688	-1330.244506835938	-14.82019519805909	1516.6552734375	-1329.718383789063	-6.363983154296877	1440.400024414063	-1310.493286132813	267.9994812011719	1503.905517578125	-1218.237426757813	279.9104614257813	1517.935302734375	-1288.56591796875	340.5018310546876	1534.494018554688	-1196.788208007813	-305.0920715332032	1549.993041992188	-909.2569580078127	-144.1080017089844	1529.652587890625	-800.4124755859377	-110.5286941528321	1535.764404296875	-834.7779541015627	-75.49068450927736	1525.006225585938	-786.582946777344	-2.794886827468873	1521.68701171875	-779.673767089844	2.34599256515503	1442.817016601563	-793.4383544921877	275.1552429199219	1511.882690429688	-851.206726074219	284.5067443847657	1530.254760742188	-783.7518310546877	355.0315856933594	1546.552124023438	-857.488464355469	-224.7869110107422	1056.773681640625	-1116.523315429688	-246.6421508789063	1092.570068359375	-870.9075317382815	-401.7112731933595	1124.263793945313	-1011.083435058594	-414.5592346191407	1094.149536132813	-1036.3037109375	-416.835662841797	1099.038940429688	-979.6220703125002	-255.6506042480469	735.9229736328126	-1147.110473632813	-224.5921325683594	657.4672851562501	-1133.077880859375	-179.781967163086	666.1662597656251	-1109.532592773438	-253.0194244384766	609.7147216796876	-1112.596801757813	-248.4054412841797	549.3710327148439	-1101.435791015625	-247.2632904052735	548.7852783203126	-981.7124023437502	-240.6539764404297	363.3528747558594	-1016.4833984375	-285.0465087890626	322.8417663574219	-1081.023193359375	-250.2240753173829	315.2398986816407	-1049.44140625	-277.5256652832032	241.1554565429688	-1017.536560058594	-378.6535339355469	120.958480834961	-1034.904296875	-341.8969421386719	133.5863342285157	-962.9188232421877	-432.4608459472657	101.6945953369141	-980.6544189453127	-233.1406555175782	43.83498001098634	-974.0396118164065	-224.3069763183594	45.92914199829102	-1024.263061523438	-270.0567626953126	36.63378143310548	-1070.848510742188	-240.7019348144532	827.724304199219	-791.4050903320315	-192.710678100586	781.7183227539065	-781.132751464844	-160.1104125976563	788.848083496094	-785.9861450195315	-203.0375366210938	695.6593017578126	-789.5590820312502	-180.8299255371094	602.0119018554689	-802.585144042969	-175.4172058105469	592.2861328125001	-918.011657714844	-303.2351074218751	492.9454345703126	-844.2495727539065	-408.6187744140626	540.4072875976564	-827.7108154296877	-388.5871582031251	496.8815917968751	-831.9724731445315	-427.5096740722657	470.2047119140626	-867.7099609375002	-560.6707153320314	494.4214782714845	-862.1411743164065	-535.4502563476564	462.7778320312501	-935.8628540039065	-589.4581298828126	544.2857055664064	-937.437194824219	-600.7850952148439	328.8908081054688	-923.836853027344	-610.4987792968751	330.1945495605469	-876.588562011719	-643.1463623046876	373.8208007812501	-842.632507324219	nan	nan	nan	nan	nan	nan	
